<svg id="Camada_1" data-name="Camada 1" xmlns="http://www.w3.org/2000/svg" viewBox="0 0 557.28 698.45"><defs><style>.cls-1{fill:#f4b732;}.cls-1,.cls-2,.cls-3,.cls-8{stroke:#1d1d1b;stroke-linecap:round;stroke-linejoin:round;}.cls-2{fill:#f7b33b;}.cls-3{fill:#b27113;}.cls-4{fill:#a0610d;}.cls-5{fill:#fbca94;}.cls-6{fill:#24251e;}.cls-7{fill:#d89b64;}.cls-8{fill:none;}</style></defs><rect class="cls-1" x="450.48" y="74.96" width="19.91" height="138.33"/><path class="cls-2" d="M754.5,448.65l.13-.12-44.34-43-44.34,43,.13.12a61.77,61.77,0,0,0-20.59,45.89c0,34.68,29,62.79,64.8,62.79s64.8-28.11,64.8-62.79A61.73,61.73,0,0,0,754.5,448.65Zm-45.17,86.57c-22.51,0-39.81-20-39.81-41.85,0-11.4,5-25.34,13-32.55l-.08-.08,27.7-24.88,28.09,24.88-.08.08c8,7.21,12.95,21.15,12.95,32.55C751.06,515.18,731.85,535.22,709.33,535.22Z" transform="translate(-248.9 -180.04)"/><rect class="cls-1" x="699.95" y="333.47" width="19.38" height="61.75" rx="6.84" transform="translate(587.59 -603.25) rotate(71.97)"/><rect class="cls-1" x="699.95" y="355.05" width="19.38" height="61.75" rx="6.84" transform="translate(608.12 -588.34) rotate(71.97)"/><rect class="cls-1" x="699.7" y="376.72" width="20.11" height="61.75" rx="7.1" transform="translate(628.8 -573.48) rotate(71.97)"/><path class="cls-3" d="M769.85,218.72H380.49V198.56a18,18,0,0,0-18-18H333.91a18,18,0,0,0-18,18v20.16H267.43a18,18,0,0,0-18,18V265.3a18,18,0,0,0,18,18h48.45V878h64.61V452.28l169-168.95H769.85A32.31,32.31,0,0,0,802.15,251h0A32.3,32.3,0,0,0,769.85,218.72ZM380.49,360.91V283.33h77.58Z" transform="translate(-248.9 -180.04)"/><path class="cls-4" d="M315.88,283.33V878h6.58V289.91a6.57,6.57,0,0,0-6.58-6.58Z" transform="translate(-248.9 -180.04)"/><path class="cls-4" d="M776.43,225.3a32.12,32.12,0,0,1,19.31,6.41,32.24,32.24,0,0,0-25.89-13H380.45A6.59,6.59,0,0,0,387,225.3Z" transform="translate(-248.9 -180.04)"/><path class="cls-4" d="M256,243.33a18,18,0,0,1,18-18h48.45V205.14a18,18,0,0,1,18-18H369a17.92,17.92,0,0,1,9,2.43,18,18,0,0,0-15.6-9H333.91a18,18,0,0,0-18,18v20.16H267.43a18,18,0,0,0-18,18V265.3a18,18,0,0,0,9,15.59,17.86,17.86,0,0,1-2.43-9Z" transform="translate(-248.9 -180.04)"/><ellipse class="cls-5" cx="461.24" cy="308.62" rx="89.43" ry="97"/><ellipse class="cls-5" cx="545.93" cy="331.67" rx="8.15" ry="10.04"/><ellipse class="cls-5" cx="373.52" cy="331.67" rx="8.15" ry="10.04"/><path class="cls-6" d="M730.94,456.56a146.58,146.58,0,0,1-45.61.54l-43.08-6.28a5.54,5.54,0,0,0-6,3.52h0a93.82,93.82,0,0,0-5.35,45l1.85,14.71a5.5,5.5,0,0,1-.16,2.21h0a5.53,5.53,0,0,1-10.74-.4l-6.06-29.4a83,83,0,0,1,7.61-54.95h0a74.52,74.52,0,0,1,44.44-37l15.93-4.85a86.82,86.82,0,0,1,45.6-1.36" transform="translate(-248.9 -180.04)"/><path class="cls-6" d="M689.35,456.56a146.51,146.51,0,0,0,45.6.54L778,450.82a5.55,5.55,0,0,1,6,3.52h0a93.94,93.94,0,0,1,5.35,45l-1.86,14.71a5.5,5.5,0,0,0,.17,2.21h0a5.54,5.54,0,0,0,10.75-.4l6.05-29.4a83,83,0,0,0-7.6-54.95h0a74.54,74.54,0,0,0-44.45-37l-15.93-4.85a86.78,86.78,0,0,0-45.59-1.36" transform="translate(-248.9 -180.04)"/><path class="cls-7" d="M790.06,489.61a93.77,93.77,0,0,0-6-35.24,5.54,5.54,0,0,0-6-3.52L735,457.12c-1.36.2-2.72.36-4.09.52a147.89,147.89,0,0,1-20.72.94,148,148,0,0,1-20.72-.94c-1.36-.16-2.73-.32-4.09-.52l-43.08-6.27a5.52,5.52,0,0,0-6,3.52,93.75,93.75,0,0,0-6.06,35.24,93.64,93.64,0,0,1,6.06-30.94h0a5.54,5.54,0,0,1,6-3.52l43.08,6.28a146.22,146.22,0,0,0,24.81,1.45A146.16,146.16,0,0,0,735,461.43L778,455.15a5.55,5.55,0,0,1,6,3.52h0A93.89,93.89,0,0,1,790.06,489.61Z" transform="translate(-248.9 -180.04)"/><path class="cls-7" d="M710.14,581.89c-31.14,0-58.73-16.47-75.8-41.81,15.81,27.36,43.84,45.56,75.8,45.56s60-18.2,75.81-45.56C768.88,565.42,741.29,581.89,710.14,581.89Z" transform="translate(-248.9 -180.04)"/><path class="cls-8" d="M769.85,218.72H380.49V198.56a18,18,0,0,0-18-18H333.91a18,18,0,0,0-18,18v20.16H267.43a18,18,0,0,0-18,18V265.3a18,18,0,0,0,18,18h48.45V878h64.61V452.28l169-168.95H769.85A32.31,32.31,0,0,0,802.15,251h0A32.3,32.3,0,0,0,769.85,218.72ZM380.49,360.91V283.33h77.58Z" transform="translate(-248.9 -180.04)"/></svg>