<svg id="Camada_1" data-name="Camada 1" xmlns="http://www.w3.org/2000/svg" viewBox="0 0 581.7 698.45"><defs><style>.cls-1{fill:#343434;}.cls-2{fill:#f4b732;}.cls-13,.cls-2,.cls-3,.cls-4{stroke:#1d1d1b;stroke-linecap:round;stroke-linejoin:round;}.cls-3{fill:#f7b33b;}.cls-4{fill:#b27113;}.cls-5{fill:#a0610d;}.cls-6{fill:#1fa0d9;}.cls-7{fill:#0093c6;}.cls-8{fill:#575756;opacity:0.5;}.cls-9{fill:#fbca94;}.cls-10{fill:#24251e;}.cls-11{fill:#d89b64;}.cls-12{fill:#0a3871;fill-rule:evenodd;}.cls-13{fill:none;}</style></defs><rect class="cls-1" x="412.15" y="513.76" width="98.18" height="19.14"/><rect class="cls-2" x="450.48" y="74.96" width="19.91" height="138.33"/><path class="cls-3" d="M754.5,448.65l.13-.12-44.34-43-44.34,43,.13.12a61.77,61.77,0,0,0-20.59,45.89c0,34.68,29,62.79,64.8,62.79s64.8-28.11,64.8-62.79A61.73,61.73,0,0,0,754.5,448.65Zm-45.17,86.57c-22.51,0-39.81-20-39.81-41.85,0-11.4,5-25.34,13-32.55l-.08-.08,27.7-24.88,28.09,24.88-.08.08c8,7.21,12.95,21.15,12.95,32.55C751.06,515.18,731.85,535.22,709.33,535.22Z" transform="translate(-248.9 -180.04)"/><rect class="cls-2" x="699.95" y="333.47" width="19.38" height="61.75" rx="6.84" transform="translate(587.59 -603.25) rotate(71.97)"/><rect class="cls-2" x="699.95" y="355.05" width="19.38" height="61.75" rx="6.84" transform="translate(608.12 -588.34) rotate(71.97)"/><rect class="cls-2" x="699.7" y="376.72" width="20.11" height="61.75" rx="7.1" transform="translate(628.8 -573.48) rotate(71.97)"/><path class="cls-4" d="M769.85,218.72H380.49V198.56a18,18,0,0,0-18-18H333.91a18,18,0,0,0-18,18v20.16H267.43a18,18,0,0,0-18,18V265.3a18,18,0,0,0,18,18h48.45V878h64.61V452.28l169-168.95H769.85A32.31,32.31,0,0,0,802.15,251h0A32.3,32.3,0,0,0,769.85,218.72ZM380.49,360.91V283.33h77.58Z" transform="translate(-248.9 -180.04)"/><path class="cls-5" d="M315.88,283.33V878h6.58V289.91a6.57,6.57,0,0,0-6.58-6.58Z" transform="translate(-248.9 -180.04)"/><path class="cls-5" d="M776.43,225.3a32.12,32.12,0,0,1,19.31,6.41,32.24,32.24,0,0,0-25.89-13H380.45A6.59,6.59,0,0,0,387,225.3Z" transform="translate(-248.9 -180.04)"/><path class="cls-5" d="M256,243.33a18,18,0,0,1,18-18h48.45V205.14a18,18,0,0,1,18-18H369a17.92,17.92,0,0,1,9,2.43,18,18,0,0,0-15.6-9H333.91a18,18,0,0,0-18,18v20.16H267.43a18,18,0,0,0-18,18V265.3a18,18,0,0,0,9,15.59,17.86,17.86,0,0,1-2.43-9Z" transform="translate(-248.9 -180.04)"/><path class="cls-6" d="M825.21,702.38h0a15.55,15.55,0,0,1-22.51-1.44L728.49,613.8a17,17,0,0,1,1.4-23.35h0a15.55,15.55,0,0,1,22.51,1.45L826.61,679A17,17,0,0,1,825.21,702.38Z" transform="translate(-248.9 -180.04)"/><path class="cls-7" d="M826.55,700A15.55,15.55,0,0,1,804,698.52l-74.21-87.14a17,17,0,0,1-2.51-17.91,17,17,0,0,0,1.17,20.33l74.21,87.14a15.53,15.53,0,0,0,22.5,1.44h0a16.39,16.39,0,0,0,3.91-5.43A16.54,16.54,0,0,1,826.55,700Z" transform="translate(-248.9 -180.04)"/><path class="cls-6" d="M593.46,702.38h0a15.53,15.53,0,0,0,22.5-1.44l74.21-87.14a17,17,0,0,0-1.39-23.35h0a15.55,15.55,0,0,0-22.51,1.45L592.06,679A17,17,0,0,0,593.46,702.38Z" transform="translate(-248.9 -180.04)"/><path class="cls-1" d="M412.15,524.24h41.51a0,0,0,0,1,0,0V630.67a20.76,20.76,0,0,1-20.76,20.76h0a20.76,20.76,0,0,1-20.76-20.76V524.24A0,0,0,0,1,412.15,524.24Z"/><polyline class="cls-8" points="508.14 516.22 412.15 516.22 412.15 513.76 510.33 513.76 510.33 532.9"/><ellipse class="cls-9" cx="461.24" cy="308.62" rx="89.43" ry="97"/><ellipse class="cls-9" cx="545.93" cy="331.67" rx="8.15" ry="10.04"/><ellipse class="cls-9" cx="373.52" cy="331.67" rx="8.15" ry="10.04"/><path class="cls-10" d="M730.94,456.56a146.58,146.58,0,0,1-45.61.54l-43.08-6.28a5.54,5.54,0,0,0-6,3.52h0a93.82,93.82,0,0,0-5.35,45l1.85,14.71a5.5,5.5,0,0,1-.16,2.21h0a5.53,5.53,0,0,1-10.74-.4l-6.06-29.4a83,83,0,0,1,7.61-54.95h0a74.52,74.52,0,0,1,44.44-37l15.93-4.85a86.82,86.82,0,0,1,45.6-1.36" transform="translate(-248.9 -180.04)"/><path class="cls-10" d="M689.35,456.56a146.51,146.51,0,0,0,45.6.54L778,450.82a5.55,5.55,0,0,1,6,3.52h0a93.94,93.94,0,0,1,5.35,45l-1.86,14.71a5.5,5.5,0,0,0,.17,2.21h0a5.54,5.54,0,0,0,10.75-.4l6.05-29.4a83,83,0,0,0-7.6-54.95h0a74.54,74.54,0,0,0-44.45-37l-15.93-4.85a86.78,86.78,0,0,0-45.59-1.36" transform="translate(-248.9 -180.04)"/><path class="cls-11" d="M790.06,489.61a93.77,93.77,0,0,0-6-35.24,5.54,5.54,0,0,0-6-3.52L735,457.12c-1.36.2-2.72.36-4.09.52a147.89,147.89,0,0,1-20.72.94,148,148,0,0,1-20.72-.94c-1.36-.16-2.73-.32-4.09-.52l-43.08-6.27a5.52,5.52,0,0,0-6,3.52,93.75,93.75,0,0,0-6.06,35.24,93.64,93.64,0,0,1,6.06-30.94h0a5.54,5.54,0,0,1,6-3.52l43.08,6.28a146.22,146.22,0,0,0,24.81,1.45A146.16,146.16,0,0,0,735,461.43L778,455.15a5.55,5.55,0,0,1,6,3.52h0A93.89,93.89,0,0,1,790.06,489.61Z" transform="translate(-248.9 -180.04)"/><path class="cls-11" d="M710.14,581.89c-31.14,0-58.73-16.47-75.8-41.81,15.81,27.36,43.84,45.56,75.8,45.56s60-18.2,75.81-45.56C768.88,565.42,741.29,581.89,710.14,581.89Z" transform="translate(-248.9 -180.04)"/><path class="cls-7" d="M592.12,700a15.55,15.55,0,0,0,22.51-1.44l74.21-87.14a17,17,0,0,0,2.51-17.91,17,17,0,0,1-1.17,20.33L616,700.94a15.53,15.53,0,0,1-22.5,1.44h0a16.39,16.39,0,0,1-3.91-5.43A16.54,16.54,0,0,0,592.12,700Z" transform="translate(-248.9 -180.04)"/><path class="cls-6" d="M765.55,693.8H654.73L662.58,601a16.75,16.75,0,0,1,16.69-15.35h59.89a16.75,16.75,0,0,1,16.66,15Z" transform="translate(-248.9 -180.04)"/><path class="cls-7" d="M765.55,693.8l-9.73-93.12a16.7,16.7,0,0,0-7.07-12,16.55,16.55,0,0,1,3,7.85l9.73,93.12H655.08l-.35,4.13Z" transform="translate(-248.9 -180.04)"/><path class="cls-12" d="M718,632.93a1.78,1.78,0,0,1-.3.77,1.84,1.84,0,0,1-.62.56,6.32,6.32,0,0,1-1.36.64c-.93.32-1.91.65-3,1s-2.07.74-3,1c-1.09.38-2.12.7-3.11,1.07a9.43,9.43,0,0,0-2.07,1.23,8.5,8.5,0,0,0-1.52,1.81,5.57,5.57,0,0,0-.72,2.83,6.82,6.82,0,0,0,1.64,5c1.09,1.12,3.11,1.66,6.11,1.66s5.12-.59,6.22-1.76a7,7,0,0,0,1.63-5V632.93Zm-7.85-23.66c5.35,0,9.27,1,11.78,3.1a9.58,9.58,0,0,1,3.76,7.74v26.38a12.51,12.51,0,0,1-.59,3.52,7.59,7.59,0,0,1-2.35,3.52,13,13,0,0,1-4.74,2.68,29.63,29.63,0,0,1-15.71,0,13.09,13.09,0,0,1-4.74-2.68A8.51,8.51,0,0,1,695.2,650a12.55,12.55,0,0,1-.6-3.52v-4.21a11,11,0,0,1,1.8-6.15,9.79,9.79,0,0,1,5.07-4c1.09-.37,2.35-.74,3.76-1.22s2.73-1,4-1.39,2.45-.86,3.43-1.24c.59-.23,1.2-.45,1.8-.63l1-.48a4.68,4.68,0,0,0,1.14-1,6.41,6.41,0,0,0,1-1.44,4,4,0,0,0,.44-1.86v-1.71a4.37,4.37,0,0,0-.38-1.82,4.25,4.25,0,0,0-1.26-1.76,6.86,6.86,0,0,0-2.39-1.29,13,13,0,0,0-3.77-.47c-3,0-5.07.59-6.16,1.81a6.58,6.58,0,0,0-1.58,3.9.55.55,0,0,1-.6.53l-6.65.11a.63.63,0,0,1-.43-.17.59.59,0,0,1-.17-.42v-1.54a10.07,10.07,0,0,1,.87-4.22,8.84,8.84,0,0,1,2.78-3.42,14.17,14.17,0,0,1,4.86-2.3,22.31,22.31,0,0,1,7-.91Z" transform="translate(-248.9 -180.04)"/><path class="cls-13" d="M769.85,218.72H380.49V198.56a18,18,0,0,0-18-18H333.91a18,18,0,0,0-18,18v20.16H267.43a18,18,0,0,0-18,18V265.3a18,18,0,0,0,18,18h48.45V878h64.61V452.28l169-168.95H769.85A32.31,32.31,0,0,0,802.15,251h0A32.3,32.3,0,0,0,769.85,218.72ZM380.49,360.91V283.33h77.58Z" transform="translate(-248.9 -180.04)"/></svg>